<svg height='300px' width='300px'  fill="#FFFFFF" xmlns="http://www.w3.org/2000/svg" xmlns:xlink="http://www.w3.org/1999/xlink" version="1.1" x="0px" y="0px" viewBox="0 0 100 100" enable-background="new 0 0 100 100" xml:space="preserve"><path d="M92.551,66.975c-0.917-0.618-2.16-0.371-2.774,0.546c-6.47,9.639-16.24,15.22-26.863,15.391v-8.313  c0-0.276-0.224-0.5-0.5-0.5s-0.5,0.224-0.5,0.5v8.315C44.018,82.621,29.396,66.73,28.13,46.697h7.126c0.276,0,0.5-0.224,0.5-0.5  s-0.224-0.5-0.5-0.5h-7.185c-0.025-0.604-0.446-10.322,2.379-16.376c7.745-6.877,18.287-12.969,31.463-13.316V18.7  c0,0.276,0.224,0.5,0.5,0.5s0.5-0.224,0.5-0.5v-2.715c8.644-0.006,17.977,2.38,27.822,7.197c0.996,0.484,2.19,0.073,2.676-0.918  c0.485-0.992,0.074-2.19-0.918-2.676c-10.397-5.085-20.312-7.63-29.58-7.604V8.729c0-0.276-0.224-0.5-0.5-0.5s-0.5,0.224-0.5,0.5  v3.272C30.125,13,15.518,39.771,11.947,45.697H7.701c-0.276,0-0.5,0.224-0.5,0.5s0.224,0.5,0.5,0.5h3.653  c-3.742,6.404-5.653,11.585-5.653,13.151c0,3.847,14.191,12.708,19.163,15.509c7.763,4.374,22.82,11.664,37.049,11.832v4.081  c0,0.276,0.224,0.5,0.5,0.5s0.5-0.224,0.5-0.5v-4.075c8.907-0.052,18.506-1.497,28.549-4.314c1.063-0.299,1.684-1.402,1.386-2.466  c-0.299-1.063-1.403-1.685-2.466-1.386c-2.934,0.823-5.824,1.525-8.668,2.105c4.357-2.846,8.228-6.684,11.383-11.386  C93.713,68.832,93.468,67.59,92.551,66.975z M24.684,35.08c-0.454,2.621-0.628,10.012-0.606,10.617h-7.433  C18.471,42.844,24.206,35.614,24.684,35.08z M9.754,59.589c0.348-1.484,2.327-6.554,6.26-12.892h8.105  c0.728,12.56,6.275,23.671,14.588,31.015C24.082,71.653,11.646,62.388,9.754,59.589z M72.975,48.169V36.98c0-0.553-0.447-1-1-1  H52.852c-0.553,0-1,0.447-1,1v11.188l-4.434,3.812c-0.221,0.189-0.348,0.467-0.348,0.758v2.676c0,0.553,0.447,1,1,1h28.686  c0.553,0,1-0.447,1-1v-2.676c0-0.291-0.127-0.568-0.348-0.758L72.975,48.169z M70.975,37.98v10.455H53.852V37.98H70.975z   M53.446,49.436H71.38l3.26,2.803H50.186L53.446,49.436z M49.07,54.414v-1.176h26.686v1.176H49.07z M40.999,41.025  c-0.414,0-0.75-0.336-0.75-0.75V24.784c0-0.414,0.336-0.75,0.75-0.75H56.49c0.414,0,0.75,0.336,0.75,0.75s-0.336,0.75-0.75,0.75  H41.749v14.741C41.749,40.689,41.413,41.025,40.999,41.025z M41.749,52.12v14.741H56.49c0.414,0,0.75,0.336,0.75,0.75  s-0.336,0.75-0.75,0.75H40.999c-0.414,0-0.75-0.336-0.75-0.75V52.12c0-0.414,0.336-0.75,0.75-0.75S41.749,51.706,41.749,52.12z   M83.077,40.275V25.534H68.336c-0.414,0-0.75-0.336-0.75-0.75s0.336-0.75,0.75-0.75h15.491c0.414,0,0.75,0.336,0.75,0.75v15.491  c0,0.414-0.336,0.75-0.75,0.75S83.077,40.689,83.077,40.275z M83.827,51.37c0.414,0,0.75,0.336,0.75,0.75v15.491  c0,0.414-0.336,0.75-0.75,0.75H68.336c-0.414,0-0.75-0.336-0.75-0.75s0.336-0.75,0.75-0.75h14.741V52.12  C83.077,51.706,83.413,51.37,83.827,51.37z M86.924,46.197c0-0.276-0.224-0.5-0.5-0.5h-2.097v-2.097c0-0.276-0.224-0.5-0.5-0.5  s-0.5,0.224-0.5,0.5v2.097h-0.671c-0.265-10.776-8.967-19.478-19.743-19.742v-0.671h2.097c0.276,0,0.5-0.224,0.5-0.5  s-0.224-0.5-0.5-0.5h-2.097v-2.098c0-0.276-0.224-0.5-0.5-0.5s-0.5,0.224-0.5,0.5v2.098h-2.097c-0.276,0-0.5,0.224-0.5,0.5  s0.224,0.5,0.5,0.5h2.097v0.671C51.137,26.22,42.435,34.922,42.17,45.697h-0.671v-2.114c0-0.276-0.224-0.5-0.5-0.5  s-0.5,0.224-0.5,0.5v2.114h-2.114c-0.276,0-0.5,0.224-0.5,0.5s0.224,0.5,0.5,0.5h2.114v2.115c0,0.276,0.224,0.5,0.5,0.5  s0.5-0.224,0.5-0.5v-2.115h0.671c0.265,10.776,8.967,19.478,19.743,19.743v0.671h-2.114c-0.276,0-0.5,0.224-0.5,0.5  s0.224,0.5,0.5,0.5h2.114v2.115c0,0.276,0.224,0.5,0.5,0.5s0.5-0.224,0.5-0.5v-2.115h2.115c0.276,0,0.5-0.224,0.5-0.5  s-0.224-0.5-0.5-0.5h-2.115V66.44c10.776-0.265,19.479-8.967,19.743-19.743h0.671v2.098c0,0.276,0.224,0.5,0.5,0.5  s0.5-0.224,0.5-0.5v-2.098h2.097C86.7,46.697,86.924,46.474,86.924,46.197z M62.913,65.44v-0.443c0-0.276-0.224-0.5-0.5-0.5  s-0.5,0.224-0.5,0.5v0.443c-10.225-0.264-18.479-8.518-18.743-18.743h0.444c0.276,0,0.5-0.224,0.5-0.5s-0.224-0.5-0.5-0.5H43.17  c0.264-10.224,8.518-18.478,18.743-18.742v0.426c0,0.276,0.224,0.5,0.5,0.5s0.5-0.224,0.5-0.5v-0.426  c10.225,0.264,18.479,8.518,18.743,18.742h-0.427c-0.276,0-0.5,0.224-0.5,0.5s0.224,0.5,0.5,0.5h0.427  C81.392,56.922,73.138,65.176,62.913,65.44z M92.299,45.697c0.276,0,0.5,0.224,0.5,0.5s-0.224,0.5-0.5,0.5h-2.826  c-0.276,0-0.5-0.224-0.5-0.5s0.224-0.5,0.5-0.5H92.299z"></path></svg>